mtllib Branches.mtl
v -0.5 -0.5 0
v 0.5 -0.5 0
v 0.5 0.5 0
v -0.5 0.5 0
v -0.948599 -0.5406097 0.1
v 0.5406097 -0.948599 0.1
v 0.948599 0.5406097 0.1
v -0.5406097 0.948599 0.1
v 1.656289 -0.3953252 0.3
v 0.3953252 1.656289 0.3
v -1.656289 0.3953252 0.3
v -0.3953252 -1.656289 0.3
v -0.1112697 -1.249298 0.2
v 1.249298 -0.1112697 0.2
v 0.1112697 1.249298 0.2
v -1.249298 0.1112697 0.2
v 1.512005 1.512006 0.4
v -1.512006 1.512005 0.4
v -1.512005 -1.512006 0.4
v 1.512006 -1.512005 0.4
v 1.462008 2.143028 0.5
v -2.143028 1.462008 0.5
v -1.462008 -2.143028 0.5
v 2.143028 -1.462008 0.5
vt  0 0
vt  -1 0
vt  -1 1
vt  0 1
vt  0 0
vt  -1 0
vt  -1 1
vt  0 1
vt  0 0
vt  -1 0
vt  -1 1
vt  0 1
vt  0 0
vt  -1 0
vt  -1 1
vt  0 1
vt  0 0
vt  -1 0
vt  -1 1
vt  0 1
vt  0 0
vt  -1 0
vt  -1 1
vt  0 1
vn 0 0 1
vn 0 0 -1
g Cube
usemtl mat_0_0
f 2/1/1 3/4/1 4/3/1 1/2/1
f 1/2/2 4/3/2 3/4/2 2/1/2
f 6/5/1 7/8/1 8/7/1 5/6/1
f 5/6/2 8/7/2 7/8/2 6/5/2
f 10/9/1 11/12/1 12/11/1 9/10/1
f 9/10/2 12/11/2 11/12/2 10/9/2
f 14/13/1 15/16/1 16/15/1 13/14/1
f 13/14/2 16/15/2 15/16/2 14/13/2
f 18/17/1 19/20/1 20/19/1 17/18/1
f 17/18/2 20/19/2 19/20/2 18/17/2
f 22/21/1 23/24/1 24/23/1 21/22/1
f 21/22/2 24/23/2 23/24/2 22/21/2
